<svg width="225" height="84" viewBox="0 0 225 84" fill="none" xmlns="http://www.w3.org/2000/svg">
<g filter="url(#filter0_d_101_3)">
<path d="M29.111 21.128C29.111 19.848 28.663 19.208 27.767 19.208C27.4257 19.208 27.0203 19.2933 26.551 19.464C26.0817 19.6347 25.6337 19.784 25.207 19.912C23.6283 20.7653 22.391 21.704 21.495 22.728C20.6417 23.7093 19.767 24.8187 18.871 26.056C17.975 27.2933 17.207 28.616 16.567 30.024C15.927 31.432 15.4363 32.7547 15.095 33.992C13.8577 38.5573 14.327 41.6293 16.503 43.208C17.399 43.848 18.3377 44.168 19.319 44.168C20.343 44.1253 21.1537 43.912 21.751 43.528C22.391 43.144 23.0097 42.7813 23.607 42.44C24.2043 42.0987 24.887 41.864 25.655 41.736C26.4657 41.5653 27.447 41.672 28.599 42.056C29.7937 42.3973 30.4337 42.8667 30.519 43.464C30.6043 44.0613 30.6043 44.68 30.519 45.32C30.4337 45.96 30.4123 46.536 30.455 47.048C30.5403 47.56 31.0097 47.88 31.863 48.008C32.6737 49.032 32.1617 50.2693 30.327 51.72C29.8577 52.104 29.4097 52.4667 28.983 52.808C25.3137 55.1547 21.4097 56.456 17.271 56.712C14.6683 56.8827 11.895 56.4133 8.951 55.304C4.55633 53.64 2.08167 49.9067 1.527 44.104C0.801667 38.728 1.48433 33.16 3.575 27.4C5.32433 22.536 7.96967 18.0347 11.511 13.896C14.711 10.0987 17.8683 7.624 20.983 6.472C24.695 4.552 28.7057 3.80533 33.015 4.232C37.5803 4.82933 40.567 6.77067 41.975 10.056C43.383 13.3413 43.1483 17.288 41.271 21.896C40.631 23.5173 39.415 24.7973 37.623 25.736C36.087 26.5893 34.423 27.016 32.631 27.016C30.839 27.016 29.687 26.4613 29.175 25.352C28.663 24.2 28.6417 22.792 29.111 21.128ZM66.3745 25.544L66.6305 25.608C66.7158 25.608 66.7585 25.6293 66.7585 25.672C67.8678 25.2453 68.7852 25.5653 69.5105 26.632C69.9798 27.3573 70.3425 28.4667 70.5985 29.96C70.6838 32.008 70.4705 34.8453 69.9585 38.472C68.9772 45.8107 68.4438 50.184 68.3585 51.592C68.4438 53.0853 67.5265 54.1093 65.6065 54.664C63.9425 55.176 62.2785 55.1547 60.6145 54.6C58.8652 54.0027 58.1398 53.0853 58.4385 51.848C58.0972 52.488 57.7558 52.936 57.4145 53.192C57.0732 53.4907 56.3905 53.8747 55.3665 54.344C54.3852 54.856 52.9772 55.2613 51.1425 55.56C49.3078 55.9013 47.4732 55.9867 45.6385 55.816C43.8038 55.688 42.1185 55.24 40.5825 54.472C39.0892 53.7467 38.0865 52.5947 37.5745 51.016C36.5932 47.944 36.7212 44.04 37.9585 39.304C38.8118 36.1893 40.3478 33.4373 42.5665 31.048C45.1265 28.3173 48.0278 26.056 51.2705 24.264C53.7025 22.9413 56.0492 22.152 58.3105 21.896C59.0785 21.8107 59.7398 21.832 60.2945 21.96C60.8918 22.088 61.5105 22.216 62.1505 22.344C62.8332 22.472 63.4732 22.664 64.0705 22.92C65.6065 23.56 66.3745 24.4347 66.3745 25.544ZM54.5345 42.504C54.8332 41.9067 55.0678 41.16 55.2385 40.264C55.4518 39.368 55.7292 38.3867 56.0705 37.32C52.6145 38.728 49.9692 40.456 48.1345 42.504C46.1292 44.7653 46.2572 46.3227 48.5185 47.176C50.4812 47.688 51.9105 47.368 52.8065 46.216C53.1905 45.704 53.5318 45.064 53.8305 44.296C54.1292 43.528 54.4918 42.7387 54.9185 41.928C54.7905 42.1413 54.6625 42.3333 54.5345 42.504ZM78.031 26.504C78.6283 24.968 79.4603 23.816 80.527 23.048C81.6363 22.2373 82.6817 21.7467 83.663 21.576C84.687 21.3627 85.519 21.4693 86.159 21.896C86.8417 22.3227 87.0763 22.984 86.863 23.88C87.6737 23.0693 88.847 22.3227 90.383 21.64C91.919 20.9573 93.135 20.488 94.031 20.232C94.927 19.976 95.695 19.848 96.335 19.848C97.743 19.9333 98.1483 20.7013 97.551 22.152C98.2763 22.28 98.8097 22.7493 99.151 23.56C99.4923 24.3707 99.535 25.2667 99.279 26.248C99.023 27.2293 98.447 28.1893 97.551 29.128C96.655 30.0667 95.439 30.7067 93.903 31.048C92.4097 31.3893 91.151 32.1787 90.127 33.416C89.1457 34.6107 88.271 36.104 87.503 37.896C86.223 40.9253 85.071 45.2133 84.047 50.76C83.7057 52.7653 82.319 54.4507 79.887 55.816C77.583 57.1387 75.471 57.5227 73.551 56.968C71.375 56.3707 70.415 54.7707 70.671 52.168C70.7563 50.3333 71.311 47.9013 72.335 44.872C73.359 41.8 74.1483 39.496 74.703 37.96C75.2577 36.3813 75.6417 35.1867 75.855 34.376L78.031 26.504Z" fill="#920000"/>
<path d="M114.157 5.128L114.221 4.872L114.797 4.296C115.266 3.18666 115.778 2.52533 116.333 2.312C116.631 2.22666 117.015 2.12 117.485 1.992C117.954 1.864 118.573 1.544 119.341 1.032C119.639 0.434664 120.258 0.178664 121.197 0.263996C122.135 0.306665 123.053 0.605331 123.949 1.16C124.887 1.672 125.634 2.39733 126.189 3.336C126.786 4.27467 126.935 5.256 126.637 6.28C126.338 7.26133 126.082 8.008 125.869 8.52C125.698 8.98933 125.506 9.43733 125.293 9.864C125.122 10.2907 124.887 10.7813 124.589 11.336C124.333 11.848 123.991 12.552 123.565 13.448L121.453 17.864C121.239 18.4187 121.047 18.7387 120.877 18.824C120.749 18.9093 120.621 19.0587 120.493 19.272C120.877 19.1867 121.197 19.1227 121.453 19.08C121.709 19.0373 121.965 18.9947 122.221 18.952C122.818 18.8667 123.501 18.7813 124.269 18.696C124.738 18.7813 125.143 18.824 125.485 18.824H126.381C126.893 18.824 127.511 18.9733 128.237 19.272C128.962 19.528 129.431 19.9973 129.645 20.68C129.858 21.3627 129.879 22.0667 129.708 22.792C129.538 23.4747 129.197 24.1147 128.685 24.712C128.173 25.3093 127.511 25.6293 126.701 25.672C122.989 26.696 120.343 27.2507 118.765 27.336L118.381 27.784V27.848C117.954 28.872 117.485 30.1733 116.973 31.752C116.503 33.288 115.97 34.9733 115.373 36.808C114.818 38.6 114.242 40.4773 113.645 42.44C113.047 44.36 112.429 46.216 111.789 48.008C109.741 54.024 108.247 57.288 107.309 57.8C106.967 57.9707 106.605 58.0773 106.22 58.12C105.879 58.2053 105.687 58.2693 105.645 58.312C104.151 58.2267 102.914 57.928 101.933 57.416C100.951 56.904 100.29 56.4133 99.9485 55.944C99.6072 55.4747 99.5218 54.9413 99.6925 54.344C100.503 46.92 102.125 38.792 104.557 29.96C103.703 29.96 103.106 30.0453 102.765 30.216C102.125 30.5573 101.357 30.7493 100.461 30.792H100.397C99.7138 30.7493 99.0952 30.4293 98.5405 29.832C97.9858 29.2347 97.6445 28.552 97.5165 27.784C97.3885 27.016 97.5165 26.2267 97.9005 25.416C98.2845 24.6053 99.0525 23.9653 100.205 23.496C101.57 23.112 102.573 22.792 103.213 22.536C104.45 22.024 105.474 21.6613 106.285 21.448C107.138 21.2347 107.607 21.1067 107.693 21.064C107.821 20.9787 107.906 20.9147 107.949 20.872C108.077 20.7867 108.397 20.744 108.909 20.744C109.165 19.5067 109.421 18.248 109.677 16.968C109.933 15.688 110.253 14.3867 110.637 13.064C111.49 9.992 112.663 7.34666 114.157 5.128ZM133.135 25.288C133.69 23.88 135.013 22.92 137.104 22.408C139.066 21.896 140.901 21.96 142.608 22.6C144.357 23.2827 145.146 24.392 144.976 25.928C144.506 27.4213 143.909 29.256 143.184 31.432C142.501 33.5653 141.84 35.7627 141.2 38.024C139.493 43.8267 138.512 47.9227 138.256 50.312C137.616 54.152 136.549 56.2213 135.056 56.52C134.629 56.6053 134.224 56.6693 133.84 56.712C132.901 56.7547 132.304 57.0107 132.048 57.48C131.792 57.9493 131.365 58.2907 130.768 58.504C130.17 58.76 129.509 58.8667 128.784 58.824C128.101 58.824 127.397 58.6533 126.672 58.312C125.946 58.0133 125.328 57.5653 124.816 56.968C123.621 55.5173 123.386 53.576 124.111 51.144C124.794 46.4933 126.522 40.584 129.296 33.416C130.618 29.8747 131.898 27.1653 133.135 25.288ZM145.232 15.688C143.141 16.1147 141.434 15.9867 140.112 15.304C138.832 14.6213 138.085 13.8107 137.872 12.872C137.658 11.8907 137.957 10.888 138.768 9.864C139.706 8.584 141.114 7.752 142.992 7.368C143.845 7.28266 144.464 7.24 144.848 7.24C145.232 7.24 145.701 7.32533 146.256 7.496C147.664 7.624 148.581 8.24267 149.008 9.352C149.605 10.2907 149.648 11.3573 149.136 12.552C148.666 13.7467 147.365 14.792 145.232 15.688ZM167.33 23.688C168.951 23.1333 171.426 22.7493 174.754 22.536C175.522 22.9627 175.821 23.8373 175.65 25.16C175.522 26.4827 175.031 27.4853 174.178 28.168C173.154 29.704 172.066 30.7493 170.914 31.304C170.274 31.6027 169.485 31.88 168.546 32.136C167.65 32.3493 166.541 32.648 165.218 33.032C164.365 35.4213 163.405 38.664 162.338 42.76C161.314 46.856 160.589 49.5867 160.162 50.952C159.181 54.1093 158.477 55.752 158.05 55.88C157.069 57.416 155.981 58.376 154.786 58.76C153.634 59.144 152.567 59.144 151.586 58.76C150.605 58.4187 149.837 57.7787 149.282 56.84C148.77 55.944 148.663 54.984 148.962 53.96C148.834 52.8933 149.026 49.9067 149.538 45C150.05 40.0933 150.306 37.2773 150.306 36.552C150.135 36.3813 149.922 36.2747 149.666 36.232C149.41 36.1893 149.239 36.0827 149.154 35.912C148.77 35.784 148.471 35.5493 148.258 35.208C147.874 34.6107 147.469 34.184 147.042 33.928C146.274 34.0133 145.655 33.8 145.186 33.288C144.674 32.7333 144.418 32.0933 144.418 31.368C144.418 30.6427 144.674 29.896 145.186 29.128C145.698 28.36 146.573 27.7627 147.81 27.336L154.338 25.288C154.85 21.832 156.471 17.9067 159.202 13.512C159.842 12.4453 160.525 11.3147 161.25 10.12C162.018 8.88266 163.063 7.752 164.386 6.728C165.709 5.66133 167.074 4.85066 168.482 4.296C169.933 3.69866 171.383 3.336 172.834 3.208C174.327 3.08 175.693 3.10133 176.93 3.272C179.533 3.61333 181.261 4.488 182.114 5.896C183.138 7.688 183.586 9.30933 183.458 10.76C183.373 12.168 182.797 13.2347 181.73 13.96C180.023 15.0693 178.573 15.24 177.378 14.472C176.909 14.216 176.567 13.7893 176.354 13.192C176.141 12.5947 175.735 12.3813 175.138 12.552C174.541 12.7227 173.858 13.128 173.09 13.768C172.322 14.3653 171.533 15.1333 170.722 16.072C169.954 17.0107 169.271 17.9707 168.674 18.952C167.181 21.2133 166.733 22.792 167.33 23.688ZM175.429 33.416C175.472 31.6667 175.344 30.2373 175.045 29.128C174.746 28.0187 174.746 27.1013 175.045 26.376C175.386 25.608 175.898 25.0747 176.581 24.776C177.306 24.4773 178.138 24.392 179.077 24.52C180.058 24.6053 181.018 24.8827 181.957 25.352C184.218 26.376 185.797 27.8267 186.693 29.704C186.906 30.6427 186.821 31.816 186.437 33.224C186.096 34.5893 185.69 36.0187 185.221 37.512C184.752 38.9627 184.304 40.392 183.877 41.8C183.45 43.1653 183.28 44.3173 183.365 45.256C184.474 44.5733 185.434 43.5493 186.245 42.184C187.098 40.8187 187.866 39.368 188.549 37.832C189.274 36.2533 189.936 34.696 190.533 33.16C191.173 31.624 191.77 30.408 192.325 29.512C192.922 28.616 193.392 27.912 193.733 27.4C194.074 26.8453 194.416 26.3547 194.757 25.928C195.312 25.2027 196.037 24.4987 196.933 23.816C197.189 23.6027 197.957 23.6453 199.237 23.944C200.56 24.2 201.52 24.392 202.117 24.52C202.757 24.6053 203.184 24.5627 203.397 24.392L204.293 23.752C205.488 23.1547 206.896 23.176 208.517 23.816C210.096 24.4987 210.928 25.544 211.013 26.952C210.97 26.9947 210.949 27.08 210.949 27.208L211.141 27.272L210.693 27.656C210.394 28.2107 210.16 28.5947 209.989 28.808C209.861 28.9787 209.562 29.256 209.093 29.64C206.192 32.7547 202.864 38.536 199.109 46.984C198.17 49.0747 197.317 50.952 196.549 52.616C197.701 53.3413 198.576 54.28 199.173 55.432C199.77 56.584 199.77 57.8427 199.173 59.208C195.632 62.024 193.648 64.6693 193.221 67.144C193.008 68.68 192.73 69.768 192.389 70.408C192.09 71.048 191.6 71.6667 190.917 72.264C188.613 73.9707 185.904 73.544 182.789 70.984C180.57 68.7653 180.464 65.992 182.469 62.664C182.981 61.768 183.472 60.8293 183.941 59.848C184.624 58.3973 185.712 56.2427 187.205 53.384C183.536 55.5173 180.165 55.4747 177.093 53.256C174.917 51.592 174.149 47.816 174.789 41.928C175.216 38.0027 175.429 35.1653 175.429 33.416Z" fill="black"/>
</g>
<defs>
<filter id="filter0_d_101_3" x="0.438999" y="0.135986" width="223.702" height="83.688" filterUnits="userSpaceOnUse" color-interpolation-filters="sRGB">
<feFlood flood-opacity="0" result="BackgroundImageFix"/>
<feColorMatrix in="SourceAlpha" type="matrix" values="0 0 0 0 0 0 0 0 0 0 0 0 0 0 0 0 0 0 127 0" result="hardAlpha"/>
<feOffset dx="9" dy="5"/>
<feGaussianBlur stdDeviation="2"/>
<feComposite in2="hardAlpha" operator="out"/>
<feColorMatrix type="matrix" values="0 0 0 0 0 0 0 0 0 0 0 0 0 0 0 0 0 0 0.25 0"/>
<feBlend mode="normal" in2="BackgroundImageFix" result="effect1_dropShadow_101_3"/>
<feBlend mode="normal" in="SourceGraphic" in2="effect1_dropShadow_101_3" result="shape"/>
</filter>
</defs>
</svg>
